# MagicaVoxel @ ephtracy

# material
mtllib tarte.mtl
usemtl palette

# normals
vn -1 0 0
vn 1 0 0
vn 0 0 1
vn 0 0 -1
vn 0 -1 0
vn 0 1 0

# texcoords
vt 0.373047 0.5
vt 0.376953 0.5
vt 0.431641 0.5

# verts
v -12.5 0 5.5
v -12.5 0 -1.5
v -12.5 1 5.5
v -12.5 1 -1.5
v -11.5 0 7.5
v -11.5 0 5.5
v -11.5 0 -1.5
v -11.5 0 -3.5
v -11.5 1 7.5
v -11.5 1 5.5
v -11.5 1 1.5
v -11.5 1 -1.5
v -11.5 1 -3.5
v -11.5 2 5.5
v -11.5 2 1.5
v -11.5 2 -1.5
v -10.5 0 9.5
v -10.5 0 7.5
v -10.5 0 -3.5
v -10.5 0 -5.5
v -10.5 1 9.5
v -10.5 1 7.5
v -10.5 1 5.5
v -10.5 1 -1.5
v -10.5 1 -3.5
v -10.5 1 -5.5
v -10.5 2 7.5
v -10.5 2 5.5
v -10.5 2 -1.5
v -10.5 2 -3.5
v -9.5 0 10.5
v -9.5 0 9.5
v -9.5 0 -5.5
v -9.5 0 -6.5
v -9.5 1 10.5
v -9.5 1 9.5
v -9.5 1 7.5
v -9.5 1 -3.5
v -9.5 1 -5.5
v -9.5 1 -6.5
v -9.5 2 9.5
v -9.5 2 7.5
v -9.5 2 -3.5
v -9.5 2 -5.5
v -8.5 0 11.5
v -8.5 0 10.5
v -8.5 0 -6.5
v -8.5 0 -7.5
v -8.5 1 11.5
v -8.5 1 10.5
v -8.5 1 -6.5
v -8.5 1 -7.5
v -7.5 0 12.5
v -7.5 0 11.5
v -7.5 0 -7.5
v -7.5 0 -8.5
v -7.5 1 12.5
v -7.5 1 11.5
v -7.5 1 9.5
v -7.5 1 -5.5
v -7.5 1 -7.5
v -7.5 1 -8.5
v -7.5 2 11.5
v -7.5 2 9.5
v -7.5 2 -5.5
v -7.5 2 -7.5
v -5.5 0 13.5
v -5.5 0 12.5
v -5.5 0 -8.5
v -5.5 0 -9.5
v -5.5 1 13.5
v -5.5 1 12.5
v -5.5 1 11.5
v -5.5 1 -7.5
v -5.5 1 -8.5
v -5.5 1 -9.5
v -5.5 2 12.5
v -5.5 2 11.5
v -5.5 2 -7.5
v -5.5 2 -8.5
v -3.5 0 14.5
v -3.5 0 13.5
v -3.5 0 -9.5
v -3.5 0 -10.5
v -3.5 1 14.5
v -3.5 1 13.5
v -3.5 1 12.5
v -3.5 1 -8.5
v -3.5 1 -9.5
v -3.5 1 -10.5
v -3.5 2 13.5
v -3.5 2 12.5
v -3.5 2 -8.5
v -3.5 2 -9.5
v 3.5 0 14.5
v 3.5 0 13.5
v 3.5 0 -9.5
v 3.5 0 -10.5
v 3.5 1 14.5
v 3.5 1 13.5
v 3.5 1 12.5
v 3.5 1 -8.5
v 3.5 1 -9.5
v 3.5 1 -10.5
v 3.5 2 13.5
v 3.5 2 12.5
v 3.5 2 -8.5
v 3.5 2 -9.5
v 5.5 0 13.5
v 5.5 0 12.5
v 5.5 0 -8.5
v 5.5 0 -9.5
v 5.5 1 13.5
v 5.5 1 12.5
v 5.5 1 11.5
v 5.5 1 -7.5
v 5.5 1 -8.5
v 5.5 1 -9.5
v 5.5 2 12.5
v 5.5 2 11.5
v 5.5 2 -7.5
v 5.5 2 -8.5
v 6.5 1 -6.5
v 6.5 1 -7.5
v 6.5 2 -6.5
v 6.5 2 -7.5
v 7.5 0 12.5
v 7.5 0 11.5
v 7.5 0 -7.5
v 7.5 0 -8.5
v 7.5 1 12.5
v 7.5 1 11.5
v 7.5 1 9.5
v 7.5 1 -5.5
v 7.5 1 -6.5
v 7.5 1 -7.5
v 7.5 1 -8.5
v 7.5 2 11.5
v 7.5 2 9.5
v 7.5 2 -5.5
v 7.5 2 -6.5
v 8.5 0 11.5
v 8.5 0 10.5
v 8.5 0 -6.5
v 8.5 0 -7.5
v 8.5 1 11.5
v 8.5 1 10.5
v 8.5 1 -6.5
v 8.5 1 -7.5
v 9.5 0 10.5
v 9.5 0 9.5
v 9.5 0 -5.5
v 9.5 0 -6.5
v 9.5 1 10.5
v 9.5 1 9.5
v 9.5 1 7.5
v 9.5 1 -3.5
v 9.5 1 -5.5
v 9.5 1 -6.5
v 9.5 2 9.5
v 9.5 2 7.5
v 9.5 2 -3.5
v 9.5 2 -5.5
v 10.5 0 9.5
v 10.5 0 7.5
v 10.5 0 -3.5
v 10.5 0 -5.5
v 10.5 1 9.5
v 10.5 1 7.5
v 10.5 1 5.5
v 10.5 1 -1.5
v 10.5 1 -3.5
v 10.5 1 -5.5
v 10.5 2 7.5
v 10.5 2 5.5
v 10.5 2 -1.5
v 10.5 2 -3.5
v 11.5 0 7.5
v 11.5 0 5.5
v 11.5 0 -1.5
v 11.5 0 -3.5
v 11.5 1 7.5
v 11.5 1 5.5
v 11.5 1 2.5
v 11.5 1 -1.5
v 11.5 1 -3.5
v 11.5 2 5.5
v 11.5 2 2.5
v 11.5 2 -1.5
v 12.5 0 5.5
v 12.5 0 -1.5
v 12.5 1 5.5
v 12.5 1 -1.5
v -3.5 0 14.5
v -3.5 1 14.5
v 3.5 0 14.5
v 3.5 1 14.5
v -5.5 0 13.5
v -5.5 1 13.5
v -3.5 0 13.5
v -3.5 1 13.5
v -3.5 2 13.5
v -0.5 1 13.5
v -0.5 2 13.5
v 3.5 0 13.5
v 3.5 1 13.5
v 3.5 2 13.5
v 5.5 0 13.5
v 5.5 1 13.5
v -7.5 0 12.5
v -7.5 1 12.5
v -5.5 0 12.5
v -5.5 1 12.5
v -5.5 2 12.5
v -3.5 1 12.5
v -3.5 2 12.5
v 3.5 1 12.5
v 3.5 2 12.5
v 5.5 0 12.5
v 5.5 1 12.5
v 5.5 2 12.5
v 7.5 0 12.5
v 7.5 1 12.5
v -8.5 0 11.5
v -8.5 1 11.5
v -7.5 0 11.5
v -7.5 1 11.5
v -7.5 2 11.5
v -5.5 1 11.5
v -5.5 2 11.5
v 5.5 1 11.5
v 5.5 2 11.5
v 7.5 0 11.5
v 7.5 1 11.5
v 7.5 2 11.5
v 8.5 0 11.5
v 8.5 1 11.5
v -9.5 0 10.5
v -9.5 1 10.5
v -8.5 0 10.5
v -8.5 1 10.5
v 8.5 0 10.5
v 8.5 1 10.5
v 9.5 0 10.5
v 9.5 1 10.5
v -10.5 0 9.5
v -10.5 1 9.5
v -9.5 0 9.5
v -9.5 1 9.5
v -9.5 2 9.5
v -7.5 1 9.5
v -7.5 2 9.5
v 7.5 1 9.5
v 7.5 2 9.5
v 9.5 0 9.5
v 9.5 1 9.5
v 9.5 2 9.5
v 10.5 0 9.5
v 10.5 1 9.5
v -11.5 0 7.5
v -11.5 1 7.5
v -10.5 0 7.5
v -10.5 1 7.5
v -10.5 2 7.5
v -9.5 1 7.5
v -9.5 2 7.5
v 9.5 1 7.5
v 9.5 2 7.5
v 10.5 0 7.5
v 10.5 1 7.5
v 10.5 2 7.5
v 11.5 0 7.5
v 11.5 1 7.5
v -12.5 0 5.5
v -12.5 1 5.5
v -11.5 0 5.5
v -11.5 1 5.5
v -11.5 2 5.5
v -10.5 1 5.5
v -10.5 2 5.5
v 10.5 1 5.5
v 10.5 2 5.5
v 11.5 0 5.5
v 11.5 1 5.5
v 11.5 2 5.5
v 12.5 0 5.5
v 12.5 1 5.5
v -12.5 0 -1.5
v -12.5 1 -1.5
v -11.5 0 -1.5
v -11.5 1 -1.5
v -11.5 2 -1.5
v -10.5 1 -1.5
v -10.5 2 -1.5
v 10.5 1 -1.5
v 10.5 2 -1.5
v 11.5 0 -1.5
v 11.5 1 -1.5
v 11.5 2 -1.5
v 12.5 0 -1.5
v 12.5 1 -1.5
v -11.5 0 -3.5
v -11.5 1 -3.5
v -10.5 0 -3.5
v -10.5 1 -3.5
v -10.5 2 -3.5
v -9.5 1 -3.5
v -9.5 2 -3.5
v 9.5 1 -3.5
v 9.5 2 -3.5
v 10.5 0 -3.5
v 10.5 1 -3.5
v 10.5 2 -3.5
v 11.5 0 -3.5
v 11.5 1 -3.5
v -10.5 0 -5.5
v -10.5 1 -5.5
v -9.5 0 -5.5
v -9.5 1 -5.5
v -9.5 2 -5.5
v -7.5 1 -5.5
v -7.5 2 -5.5
v 7.5 1 -5.5
v 7.5 2 -5.5
v 9.5 0 -5.5
v 9.5 1 -5.5
v 9.5 2 -5.5
v 10.5 0 -5.5
v 10.5 1 -5.5
v -9.5 0 -6.5
v -9.5 1 -6.5
v -8.5 0 -6.5
v -8.5 1 -6.5
v 6.5 1 -6.5
v 6.5 2 -6.5
v 7.5 1 -6.5
v 7.5 2 -6.5
v 8.5 0 -6.5
v 8.5 1 -6.5
v 9.5 0 -6.5
v 9.5 1 -6.5
v -8.5 0 -7.5
v -8.5 1 -7.5
v -7.5 0 -7.5
v -7.5 1 -7.5
v -7.5 2 -7.5
v -5.5 1 -7.5
v -5.5 2 -7.5
v 5.5 1 -7.5
v 5.5 2 -7.5
v 6.5 1 -7.5
v 6.5 2 -7.5
v 7.5 0 -7.5
v 7.5 1 -7.5
v 8.5 0 -7.5
v 8.5 1 -7.5
v -7.5 0 -8.5
v -7.5 1 -8.5
v -5.5 0 -8.5
v -5.5 1 -8.5
v -5.5 2 -8.5
v -3.5 1 -8.5
v -3.5 2 -8.5
v 3.5 1 -8.5
v 3.5 2 -8.5
v 5.5 0 -8.5
v 5.5 1 -8.5
v 5.5 2 -8.5
v 7.5 0 -8.5
v 7.5 1 -8.5
v -5.5 0 -9.5
v -5.5 1 -9.5
v -3.5 0 -9.5
v -3.5 1 -9.5
v -3.5 2 -9.5
v 0.5 1 -9.5
v 0.5 2 -9.5
v 3.5 0 -9.5
v 3.5 1 -9.5
v 3.5 2 -9.5
v 5.5 0 -9.5
v 5.5 1 -9.5
v -3.5 0 -10.5
v -3.5 1 -10.5
v 3.5 0 -10.5
v 3.5 1 -10.5
v -3.5 0 14.5
v 3.5 0 14.5
v -5.5 0 13.5
v -3.5 0 13.5
v 3.5 0 13.5
v 5.5 0 13.5
v -7.5 0 12.5
v -5.5 0 12.5
v 5.5 0 12.5
v 7.5 0 12.5
v -8.5 0 11.5
v -7.5 0 11.5
v 7.5 0 11.5
v 8.5 0 11.5
v -9.5 0 10.5
v -8.5 0 10.5
v 8.5 0 10.5
v 9.5 0 10.5
v -10.5 0 9.5
v -9.5 0 9.5
v 9.5 0 9.5
v 10.5 0 9.5
v -11.5 0 7.5
v -10.5 0 7.5
v 10.5 0 7.5
v 11.5 0 7.5
v -12.5 0 5.5
v -11.5 0 5.5
v 11.5 0 5.5
v 12.5 0 5.5
v -12.5 0 -1.5
v -11.5 0 -1.5
v 11.5 0 -1.5
v 12.5 0 -1.5
v -11.5 0 -3.5
v -10.5 0 -3.5
v 10.5 0 -3.5
v 11.5 0 -3.5
v -10.5 0 -5.5
v -9.5 0 -5.5
v 9.5 0 -5.5
v 10.5 0 -5.5
v -9.5 0 -6.5
v -8.5 0 -6.5
v 8.5 0 -6.5
v 9.5 0 -6.5
v -8.5 0 -7.5
v -7.5 0 -7.5
v 7.5 0 -7.5
v 8.5 0 -7.5
v -7.5 0 -8.5
v -5.5 0 -8.5
v 5.5 0 -8.5
v 7.5 0 -8.5
v -5.5 0 -9.5
v -3.5 0 -9.5
v 3.5 0 -9.5
v 5.5 0 -9.5
v -3.5 0 -10.5
v 3.5 0 -10.5
v -3.5 1 14.5
v 3.5 1 14.5
v -5.5 1 13.5
v -3.5 1 13.5
v -0.5 1 13.5
v 3.5 1 13.5
v 5.5 1 13.5
v -7.5 1 12.5
v -5.5 1 12.5
v -3.5 1 12.5
v 3.5 1 12.5
v 5.5 1 12.5
v 7.5 1 12.5
v -8.5 1 11.5
v -7.5 1 11.5
v -5.5 1 11.5
v 5.5 1 11.5
v 7.5 1 11.5
v 8.5 1 11.5
v -9.5 1 10.5
v -8.5 1 10.5
v 8.5 1 10.5
v 9.5 1 10.5
v -10.5 1 9.5
v -9.5 1 9.5
v -7.5 1 9.5
v 7.5 1 9.5
v 9.5 1 9.5
v 10.5 1 9.5
v -11.5 1 7.5
v -10.5 1 7.5
v -9.5 1 7.5
v 9.5 1 7.5
v 10.5 1 7.5
v 11.5 1 7.5
v -12.5 1 5.5
v -11.5 1 5.5
v -10.5 1 5.5
v 10.5 1 5.5
v 11.5 1 5.5
v 12.5 1 5.5
v 11.5 1 2.5
v -11.5 1 1.5
v -12.5 1 -1.5
v -11.5 1 -1.5
v -10.5 1 -1.5
v 10.5 1 -1.5
v 11.5 1 -1.5
v 12.5 1 -1.5
v -11.5 1 -3.5
v -10.5 1 -3.5
v -9.5 1 -3.5
v 9.5 1 -3.5
v 10.5 1 -3.5
v 11.5 1 -3.5
v -10.5 1 -5.5
v -9.5 1 -5.5
v -7.5 1 -5.5
v 7.5 1 -5.5
v 9.5 1 -5.5
v 10.5 1 -5.5
v -9.5 1 -6.5
v -8.5 1 -6.5
v 6.5 1 -6.5
v 7.5 1 -6.5
v 8.5 1 -6.5
v 9.5 1 -6.5
v -8.5 1 -7.5
v -7.5 1 -7.5
v -5.5 1 -7.5
v 5.5 1 -7.5
v 6.5 1 -7.5
v 7.5 1 -7.5
v 8.5 1 -7.5
v -7.5 1 -8.5
v -5.5 1 -8.5
v -3.5 1 -8.5
v 3.5 1 -8.5
v 5.5 1 -8.5
v 7.5 1 -8.5
v -5.5 1 -9.5
v -3.5 1 -9.5
v 0.5 1 -9.5
v 3.5 1 -9.5
v 5.5 1 -9.5
v -3.5 1 -10.5
v 3.5 1 -10.5
v -3.5 2 13.5
v -0.5 2 13.5
v 3.5 2 13.5
v -5.5 2 12.5
v -3.5 2 12.5
v 3.5 2 12.5
v 5.5 2 12.5
v -7.5 2 11.5
v -5.5 2 11.5
v 5.5 2 11.5
v 7.5 2 11.5
v -9.5 2 9.5
v -7.5 2 9.5
v 6.5 2 9.5
v 7.5 2 9.5
v 9.5 2 9.5
v -7.5 2 8.5
v -6.5 2 8.5
v 5.5 2 8.5
v 6.5 2 8.5
v -10.5 2 7.5
v -9.5 2 7.5
v -6.5 2 7.5
v -5.5 2 7.5
v 4.5 2 7.5
v 5.5 2 7.5
v 9.5 2 7.5
v 10.5 2 7.5
v -5.5 2 6.5
v -4.5 2 6.5
v 3.5 2 6.5
v 4.5 2 6.5
v -11.5 2 5.5
v -10.5 2 5.5
v -4.5 2 5.5
v -3.5 2 5.5
v 2.5 2 5.5
v 3.5 2 5.5
v 10.5 2 5.5
v 11.5 2 5.5
v -3.5 2 4.5
v -2.5 2 4.5
v 1.5 2 4.5
v 2.5 2 4.5
v -2.5 2 3.5
v -1.5 2 3.5
v 0.5 2 3.5
v 1.5 2 3.5
v -0.5 2 2.5
v 0.5 2 2.5
v 11.5 2 2.5
v -11.5 2 1.5
v -1.5 2 1.5
v -0.5 2 1.5
v 0.5 2 1.5
v 1.5 2 1.5
v -1.5 2 0.5
v -0.5 2 0.5
v 1.5 2 0.5
v 2.5 2 0.5
v -2.5 2 -0.5
v -1.5 2 -0.5
v 2.5 2 -0.5
v 3.5 2 -0.5
v -11.5 2 -1.5
v -10.5 2 -1.5
v -3.5 2 -1.5
v -2.5 2 -1.5
v 3.5 2 -1.5
v 4.5 2 -1.5
v 10.5 2 -1.5
v 11.5 2 -1.5
v -4.5 2 -2.5
v -3.5 2 -2.5
v 4.5 2 -2.5
v 5.5 2 -2.5
v -10.5 2 -3.5
v -9.5 2 -3.5
v -5.5 2 -3.5
v -4.5 2 -3.5
v 5.5 2 -3.5
v 6.5 2 -3.5
v 9.5 2 -3.5
v 10.5 2 -3.5
v -6.5 2 -4.5
v -5.5 2 -4.5
v 6.5 2 -4.5
v 7.5 2 -4.5
v -9.5 2 -5.5
v -7.5 2 -5.5
v -6.5 2 -5.5
v 7.5 2 -5.5
v 9.5 2 -5.5
v 6.5 2 -6.5
v 7.5 2 -6.5
v -7.5 2 -7.5
v -5.5 2 -7.5
v 5.5 2 -7.5
v 6.5 2 -7.5
v -5.5 2 -8.5
v -3.5 2 -8.5
v 3.5 2 -8.5
v 5.5 2 -8.5
v -3.5 2 -9.5
v 0.5 2 -9.5
v 3.5 2 -9.5

# faces
f 3/2/1 2/2/1 1/2/1
f 4/2/1 2/2/1 3/2/1
f 9/2/1 6/2/1 5/2/1
f 10/2/1 6/2/1 9/2/1
f 12/2/1 8/2/1 7/2/1
f 13/2/1 8/2/1 12/2/1
f 14/3/1 11/3/1 10/3/1
f 15/1/1 12/1/1 11/1/1
f 15/3/1 11/3/1 14/3/1
f 16/1/1 12/1/1 15/1/1
f 21/2/1 18/2/1 17/2/1
f 22/2/1 18/2/1 21/2/1
f 25/2/1 20/2/1 19/2/1
f 26/2/1 20/2/1 25/2/1
f 27/3/1 23/3/1 22/3/1
f 28/3/1 23/3/1 27/3/1
f 29/1/1 25/1/1 24/1/1
f 30/1/1 25/1/1 29/1/1
f 35/2/1 32/2/1 31/2/1
f 36/2/1 32/2/1 35/2/1
f 39/2/1 34/2/1 33/2/1
f 40/2/1 34/2/1 39/2/1
f 41/3/1 37/3/1 36/3/1
f 42/3/1 37/3/1 41/3/1
f 43/1/1 39/1/1 38/1/1
f 44/1/1 39/1/1 43/1/1
f 49/2/1 46/2/1 45/2/1
f 50/2/1 46/2/1 49/2/1
f 51/2/1 48/2/1 47/2/1
f 52/2/1 48/2/1 51/2/1
f 57/2/1 54/2/1 53/2/1
f 58/2/1 54/2/1 57/2/1
f 61/2/1 56/2/1 55/2/1
f 62/2/1 56/2/1 61/2/1
f 63/1/1 59/1/1 58/1/1
f 64/1/1 59/1/1 63/1/1
f 65/3/1 61/3/1 60/3/1
f 66/3/1 61/3/1 65/3/1
f 71/2/1 68/2/1 67/2/1
f 72/2/1 68/2/1 71/2/1
f 75/2/1 70/2/1 69/2/1
f 76/2/1 70/2/1 75/2/1
f 77/1/1 73/1/1 72/1/1
f 78/1/1 73/1/1 77/1/1
f 79/3/1 75/3/1 74/3/1
f 80/3/1 75/3/1 79/3/1
f 85/2/1 82/2/1 81/2/1
f 86/2/1 82/2/1 85/2/1
f 89/2/1 84/2/1 83/2/1
f 90/2/1 84/2/1 89/2/1
f 91/1/1 87/1/1 86/1/1
f 92/1/1 87/1/1 91/1/1
f 93/3/1 89/3/1 88/3/1
f 94/3/1 89/3/1 93/3/1
f 95/2/2 96/2/2 99/2/2
f 99/2/2 96/2/2 100/2/2
f 97/2/2 98/2/2 103/2/2
f 103/2/2 98/2/2 104/2/2
f 100/3/2 101/3/2 105/3/2
f 105/3/2 101/3/2 106/3/2
f 102/1/2 103/1/2 107/1/2
f 107/1/2 103/1/2 108/1/2
f 109/2/2 110/2/2 113/2/2
f 113/2/2 110/2/2 114/2/2
f 111/2/2 112/2/2 117/2/2
f 117/2/2 112/2/2 118/2/2
f 114/3/2 115/3/2 119/3/2
f 119/3/2 115/3/2 120/3/2
f 116/1/2 117/1/2 121/1/2
f 121/1/2 117/1/2 122/1/2
f 123/1/2 124/1/2 125/1/2
f 125/1/2 124/1/2 126/1/2
f 127/2/2 128/2/2 131/2/2
f 131/2/2 128/2/2 132/2/2
f 129/2/2 130/2/2 136/2/2
f 136/2/2 130/2/2 137/2/2
f 132/3/2 133/3/2 138/3/2
f 138/3/2 133/3/2 139/3/2
f 134/1/2 135/1/2 140/1/2
f 140/1/2 135/1/2 141/1/2
f 142/2/2 143/2/2 146/2/2
f 146/2/2 143/2/2 147/2/2
f 144/2/2 145/2/2 148/2/2
f 148/2/2 145/2/2 149/2/2
f 150/2/2 151/2/2 154/2/2
f 154/2/2 151/2/2 155/2/2
f 152/2/2 153/2/2 158/2/2
f 158/2/2 153/2/2 159/2/2
f 155/1/2 156/1/2 160/1/2
f 160/1/2 156/1/2 161/1/2
f 157/3/2 158/3/2 162/3/2
f 162/3/2 158/3/2 163/3/2
f 164/2/2 165/2/2 168/2/2
f 168/2/2 165/2/2 169/2/2
f 166/2/2 167/2/2 172/2/2
f 172/2/2 167/2/2 173/2/2
f 169/1/2 170/1/2 174/1/2
f 174/1/2 170/1/2 175/1/2
f 171/3/2 172/3/2 176/3/2
f 176/3/2 172/3/2 177/3/2
f 178/2/2 179/2/2 182/2/2
f 182/2/2 179/2/2 183/2/2
f 180/2/2 181/2/2 185/2/2
f 185/2/2 181/2/2 186/2/2
f 183/1/2 184/1/2 187/1/2
f 184/3/2 185/3/2 188/3/2
f 187/1/2 184/1/2 188/1/2
f 188/3/2 185/3/2 189/3/2
f 190/2/2 191/2/2 192/2/2
f 192/2/2 191/2/2 193/2/2
f 196/2/3 195/2/3 194/2/3
f 197/2/3 195/2/3 196/2/3
f 200/2/3 199/2/3 198/2/3
f 201/2/3 199/2/3 200/2/3
f 203/1/3 202/1/3 201/1/3
f 204/1/3 202/1/3 203/1/3
f 206/3/3 204/3/3 203/3/3
f 207/3/3 204/3/3 206/3/3
f 208/2/3 206/2/3 205/2/3
f 209/2/3 206/2/3 208/2/3
f 212/2/3 211/2/3 210/2/3
f 213/2/3 211/2/3 212/2/3
f 215/1/3 214/1/3 213/1/3
f 216/1/3 214/1/3 215/1/3
f 220/3/3 218/3/3 217/3/3
f 221/3/3 218/3/3 220/3/3
f 222/2/3 220/2/3 219/2/3
f 223/2/3 220/2/3 222/2/3
f 226/2/3 225/2/3 224/2/3
f 227/2/3 225/2/3 226/2/3
f 229/1/3 228/1/3 227/1/3
f 230/1/3 228/1/3 229/1/3
f 234/3/3 232/3/3 231/3/3
f 235/3/3 232/3/3 234/3/3
f 236/2/3 234/2/3 233/2/3
f 237/2/3 234/2/3 236/2/3
f 240/2/3 239/2/3 238/2/3
f 241/2/3 239/2/3 240/2/3
f 244/2/3 243/2/3 242/2/3
f 245/2/3 243/2/3 244/2/3
f 248/2/3 247/2/3 246/2/3
f 249/2/3 247/2/3 248/2/3
f 251/3/3 250/3/3 249/3/3
f 252/3/3 250/3/3 251/3/3
f 256/1/3 254/1/3 253/1/3
f 257/1/3 254/1/3 256/1/3
f 258/2/3 256/2/3 255/2/3
f 259/2/3 256/2/3 258/2/3
f 262/2/3 261/2/3 260/2/3
f 263/2/3 261/2/3 262/2/3
f 265/3/3 264/3/3 263/3/3
f 266/3/3 264/3/3 265/3/3
f 270/1/3 268/1/3 267/1/3
f 271/1/3 268/1/3 270/1/3
f 272/2/3 270/2/3 269/2/3
f 273/2/3 270/2/3 272/2/3
f 276/2/3 275/2/3 274/2/3
f 277/2/3 275/2/3 276/2/3
f 279/3/3 278/3/3 277/3/3
f 280/3/3 278/3/3 279/3/3
f 284/1/3 282/1/3 281/1/3
f 285/1/3 282/1/3 284/1/3
f 286/2/3 284/2/3 283/2/3
f 287/2/3 284/2/3 286/2/3
f 288/2/4 289/2/4 290/2/4
f 290/2/4 289/2/4 291/2/4
f 291/1/4 292/1/4 293/1/4
f 293/1/4 292/1/4 294/1/4
f 295/3/4 296/3/4 298/3/4
f 298/3/4 296/3/4 299/3/4
f 297/2/4 298/2/4 300/2/4
f 300/2/4 298/2/4 301/2/4
f 302/2/4 303/2/4 304/2/4
f 304/2/4 303/2/4 305/2/4
f 305/1/4 306/1/4 307/1/4
f 307/1/4 306/1/4 308/1/4
f 309/3/4 310/3/4 312/3/4
f 312/3/4 310/3/4 313/3/4
f 311/2/4 312/2/4 314/2/4
f 314/2/4 312/2/4 315/2/4
f 316/2/4 317/2/4 318/2/4
f 318/2/4 317/2/4 319/2/4
f 319/1/4 320/1/4 321/1/4
f 321/1/4 320/1/4 322/1/4
f 323/3/4 324/3/4 326/3/4
f 326/3/4 324/3/4 327/3/4
f 325/2/4 326/2/4 328/2/4
f 328/2/4 326/2/4 329/2/4
f 330/2/4 331/2/4 332/2/4
f 332/2/4 331/2/4 333/2/4
f 334/1/4 335/1/4 336/1/4
f 336/1/4 335/1/4 337/1/4
f 338/2/4 339/2/4 340/2/4
f 340/2/4 339/2/4 341/2/4
f 342/2/4 343/2/4 344/2/4
f 344/2/4 343/2/4 345/2/4
f 345/3/4 346/3/4 347/3/4
f 347/3/4 346/3/4 348/3/4
f 349/1/4 350/1/4 351/1/4
f 351/1/4 350/1/4 352/1/4
f 353/2/4 354/2/4 355/2/4
f 355/2/4 354/2/4 356/2/4
f 357/2/4 358/2/4 359/2/4
f 359/2/4 358/2/4 360/2/4
f 360/3/4 361/3/4 362/3/4
f 362/3/4 361/3/4 363/3/4
f 364/1/4 365/1/4 367/1/4
f 367/1/4 365/1/4 368/1/4
f 366/2/4 367/2/4 369/2/4
f 369/2/4 367/2/4 370/2/4
f 371/2/4 372/2/4 373/2/4
f 373/2/4 372/2/4 374/2/4
f 374/3/4 375/3/4 376/3/4
f 376/3/4 375/3/4 377/3/4
f 376/1/4 377/1/4 379/1/4
f 379/1/4 377/1/4 380/1/4
f 378/2/4 379/2/4 381/2/4
f 381/2/4 379/2/4 382/2/4
f 383/2/4 384/2/4 385/2/4
f 385/2/4 384/2/4 386/2/4
f 390/2/5 388/2/5 387/2/5
f 391/2/5 388/2/5 390/2/5
f 394/2/5 390/2/5 389/2/5
f 394/2/5 392/2/5 391/2/5
f 394/2/5 391/2/5 390/2/5
f 395/2/5 392/2/5 394/2/5
f 398/2/5 394/2/5 393/2/5
f 398/2/5 396/2/5 395/2/5
f 398/2/5 395/2/5 394/2/5
f 399/2/5 396/2/5 398/2/5
f 402/2/5 398/2/5 397/2/5
f 402/2/5 400/2/5 399/2/5
f 402/2/5 399/2/5 398/2/5
f 403/2/5 400/2/5 402/2/5
f 406/2/5 402/2/5 401/2/5
f 406/2/5 404/2/5 403/2/5
f 406/2/5 403/2/5 402/2/5
f 407/2/5 404/2/5 406/2/5
f 410/2/5 406/2/5 405/2/5
f 410/2/5 408/2/5 407/2/5
f 410/2/5 407/2/5 406/2/5
f 411/2/5 408/2/5 410/2/5
f 414/2/5 410/2/5 409/2/5
f 414/2/5 412/2/5 411/2/5
f 414/2/5 411/2/5 410/2/5
f 415/2/5 412/2/5 414/2/5
f 417/2/5 414/2/5 413/2/5
f 417/2/5 416/2/5 415/2/5
f 417/2/5 415/2/5 414/2/5
f 418/2/5 416/2/5 417/2/5
f 419/2/5 416/2/5 418/2/5
f 420/2/5 416/2/5 419/2/5
f 421/2/5 419/2/5 418/2/5
f 422/2/5 419/2/5 421/2/5
f 423/2/5 419/2/5 422/2/5
f 424/2/5 419/2/5 423/2/5
f 425/2/5 423/2/5 422/2/5
f 426/2/5 423/2/5 425/2/5
f 427/2/5 423/2/5 426/2/5
f 428/2/5 423/2/5 427/2/5
f 429/2/5 427/2/5 426/2/5
f 430/2/5 427/2/5 429/2/5
f 431/2/5 427/2/5 430/2/5
f 432/2/5 427/2/5 431/2/5
f 433/2/5 431/2/5 430/2/5
f 434/2/5 431/2/5 433/2/5
f 435/2/5 431/2/5 434/2/5
f 436/2/5 431/2/5 435/2/5
f 437/2/5 435/2/5 434/2/5
f 438/2/5 435/2/5 437/2/5
f 439/2/5 435/2/5 438/2/5
f 440/2/5 435/2/5 439/2/5
f 441/2/5 439/2/5 438/2/5
f 442/2/5 439/2/5 441/2/5
f 443/2/5 439/2/5 442/2/5
f 444/2/5 439/2/5 443/2/5
f 445/2/5 443/2/5 442/2/5
f 446/2/5 443/2/5 445/2/5
f 447/2/6 448/2/6 450/2/6
f 450/2/6 448/2/6 451/2/6
f 451/2/6 448/2/6 452/2/6
f 449/2/6 450/2/6 455/2/6
f 455/2/6 450/2/6 456/2/6
f 452/2/6 453/2/6 457/2/6
f 457/2/6 453/2/6 458/2/6
f 454/2/6 455/2/6 461/2/6
f 461/2/6 455/2/6 462/2/6
f 458/2/6 459/2/6 463/2/6
f 463/2/6 459/2/6 464/2/6
f 460/2/6 461/2/6 467/2/6
f 464/2/6 465/2/6 468/2/6
f 466/2/6 467/2/6 471/2/6
f 467/2/6 461/2/6 472/2/6
f 471/2/6 467/2/6 472/2/6
f 468/2/6 469/2/6 473/2/6
f 464/2/6 468/2/6 473/2/6
f 473/2/6 469/2/6 474/2/6
f 470/2/6 471/2/6 477/2/6
f 477/2/6 471/2/6 478/2/6
f 474/2/6 475/2/6 479/2/6
f 479/2/6 475/2/6 480/2/6
f 476/2/6 477/2/6 483/2/6
f 483/2/6 477/2/6 484/2/6
f 480/2/6 481/2/6 485/2/6
f 485/2/6 481/2/6 486/2/6
f 486/2/6 487/2/6 488/2/6
f 482/2/6 483/2/6 489/2/6
f 482/2/6 489/2/6 490/2/6
f 490/2/6 489/2/6 491/2/6
f 488/2/6 487/2/6 494/2/6
f 494/2/6 487/2/6 495/2/6
f 491/2/6 492/2/6 496/2/6
f 496/2/6 492/2/6 497/2/6
f 493/2/6 494/2/6 500/2/6
f 500/2/6 494/2/6 501/2/6
f 497/2/6 498/2/6 502/2/6
f 502/2/6 498/2/6 503/2/6
f 499/2/6 500/2/6 506/2/6
f 506/2/6 500/2/6 507/2/6
f 503/2/6 504/2/6 508/2/6
f 508/2/6 504/2/6 509/2/6
f 505/2/6 506/2/6 511/2/6
f 511/2/6 506/2/6 512/2/6
f 512/2/6 506/2/6 513/2/6
f 509/2/6 504/2/6 514/2/6
f 514/2/6 504/2/6 515/2/6
f 511/2/6 512/2/6 518/2/6
f 510/2/6 511/2/6 518/2/6
f 518/2/6 512/2/6 519/2/6
f 519/2/6 512/2/6 520/2/6
f 515/2/6 516/2/6 521/2/6
f 521/2/6 516/2/6 522/2/6
f 518/2/6 519/2/6 525/2/6
f 517/2/6 518/2/6 525/2/6
f 525/2/6 519/2/6 526/2/6
f 522/2/6 523/2/6 527/2/6
f 527/2/6 523/2/6 528/2/6
f 524/2/6 525/2/6 530/2/6
f 530/2/6 525/2/6 531/2/6
f 528/2/6 529/2/6 532/2/6
f 529/2/6 530/2/6 532/2/6
f 532/2/6 530/2/6 533/2/6
f 534/1/6 535/1/6 538/1/6
f 535/3/6 536/3/6 539/3/6
f 537/1/6 538/1/6 542/1/6
f 539/3/6 540/3/6 543/3/6
f 541/1/6 542/1/6 546/1/6
f 543/3/6 544/3/6 547/3/6
f 547/3/6 544/3/6 548/3/6
f 545/3/6 546/3/6 550/3/6
f 546/1/6 542/1/6 550/1/6
f 550/1/6 542/1/6 551/1/6
f 539/3/6 543/3/6 552/3/6
f 543/3/6 547/3/6 552/3/6
f 548/1/6 549/1/6 553/1/6
f 552/3/6 547/3/6 553/3/6
f 547/1/6 548/1/6 553/1/6
f 545/3/6 550/3/6 555/3/6
f 550/3/6 551/3/6 555/3/6
f 551/1/6 542/1/6 556/1/6
f 555/3/6 551/3/6 556/3/6
f 542/1/6 538/1/6 557/1/6
f 556/1/6 542/1/6 557/1/6
f 539/3/6 552/3/6 558/3/6
f 552/1/6 553/1/6 559/1/6
f 558/3/6 552/3/6 559/3/6
f 553/1/6 549/1/6 560/1/6
f 559/1/6 553/1/6 560/1/6
f 557/1/6 538/1/6 562/1/6
f 555/3/6 556/3/6 562/3/6
f 554/3/6 555/3/6 562/3/6
f 556/3/6 557/3/6 562/3/6
f 562/1/6 538/1/6 563/1/6
f 535/3/6 539/3/6 564/3/6
f 539/3/6 558/3/6 564/3/6
f 560/1/6 561/1/6 565/1/6
f 564/3/6 558/3/6 565/3/6
f 559/1/6 560/1/6 565/1/6
f 558/1/6 559/1/6 565/1/6
f 554/3/6 562/3/6 567/3/6
f 562/3/6 563/3/6 567/3/6
f 563/1/6 538/1/6 568/1/6
f 567/3/6 563/3/6 568/3/6
f 538/1/6 535/1/6 569/1/6
f 568/1/6 538/1/6 569/1/6
f 535/3/6 564/3/6 570/3/6
f 564/1/6 565/1/6 571/1/6
f 570/3/6 564/3/6 571/3/6
f 565/1/6 561/1/6 572/1/6
f 571/1/6 565/1/6 572/1/6
f 569/1/6 535/1/6 574/1/6
f 567/3/6 568/3/6 574/3/6
f 566/3/6 567/3/6 574/3/6
f 568/3/6 569/3/6 574/3/6
f 574/1/6 535/1/6 575/1/6
f 535/3/6 570/3/6 576/3/6
f 572/1/6 573/1/6 577/1/6
f 576/3/6 570/3/6 577/3/6
f 571/1/6 572/1/6 577/1/6
f 570/1/6 571/1/6 577/1/6
f 574/3/6 575/3/6 578/3/6
f 575/1/6 535/1/6 578/1/6
f 578/1/6 535/1/6 579/1/6
f 535/3/6 576/3/6 580/3/6
f 576/1/6 577/1/6 581/1/6
f 580/3/6 576/3/6 581/3/6
f 579/1/6 535/1/6 582/1/6
f 535/3/6 580/3/6 582/3/6
f 580/1/6 581/1/6 583/1/6
f 582/3/6 580/3/6 583/3/6
f 581/1/6 577/1/6 584/1/6
f 583/1/6 581/1/6 584/1/6
f 577/1/6 573/1/6 584/1/6
f 578/3/6 579/3/6 585/3/6
f 566/3/6 574/3/6 585/3/6
f 574/3/6 578/3/6 585/3/6
f 582/1/6 583/1/6 586/1/6
f 585/3/6 579/3/6 586/3/6
f 579/1/6 582/1/6 586/1/6
f 586/1/6 583/1/6 587/1/6
f 583/3/6 584/3/6 588/3/6
f 587/1/6 583/1/6 588/1/6
f 588/3/6 584/3/6 589/3/6
f 586/1/6 587/1/6 590/1/6
f 585/1/6 586/1/6 590/1/6
f 587/3/6 588/3/6 591/3/6
f 590/1/6 587/1/6 591/1/6
f 589/3/6 584/3/6 592/3/6
f 588/1/6 589/1/6 592/1/6
f 592/3/6 584/3/6 593/3/6
f 585/1/6 590/1/6 594/1/6
f 590/3/6 591/3/6 595/3/6
f 594/1/6 590/1/6 595/1/6
f 593/3/6 584/3/6 596/3/6
f 592/1/6 593/1/6 596/1/6
f 596/3/6 584/3/6 597/3/6
f 585/1/6 594/1/6 598/1/6
f 598/1/6 594/1/6 599/1/6
f 599/1/6 594/1/6 600/1/6
f 594/3/6 595/3/6 601/3/6
f 600/1/6 594/1/6 601/1/6
f 597/3/6 584/3/6 602/3/6
f 596/1/6 597/1/6 602/1/6
f 602/3/6 584/3/6 603/3/6
f 603/3/6 584/3/6 604/3/6
f 604/3/6 584/3/6 605/3/6
f 599/1/6 600/1/6 606/1/6
f 600/3/6 601/3/6 607/3/6
f 606/1/6 600/1/6 607/1/6
f 603/3/6 604/3/6 608/3/6
f 602/1/6 603/1/6 608/1/6
f 608/3/6 604/3/6 609/3/6
f 599/1/6 606/1/6 610/1/6
f 610/1/6 606/1/6 611/1/6
f 611/1/6 606/1/6 612/1/6
f 606/3/6 607/3/6 613/3/6
f 612/1/6 606/1/6 613/1/6
f 609/3/6 604/3/6 614/3/6
f 608/1/6 609/1/6 614/1/6
f 614/3/6 604/3/6 615/3/6
f 615/3/6 604/3/6 616/3/6
f 616/3/6 604/3/6 617/3/6
f 611/1/6 612/1/6 618/1/6
f 612/3/6 613/3/6 619/3/6
f 618/1/6 612/1/6 619/1/6
f 615/3/6 616/3/6 620/3/6
f 614/1/6 615/1/6 620/1/6
f 620/3/6 616/3/6 621/3/6
f 611/1/6 618/1/6 622/1/6
f 622/1/6 618/1/6 623/1/6
f 618/3/6 619/3/6 624/3/6
f 623/1/6 618/1/6 624/1/6
f 621/3/6 616/3/6 625/3/6
f 620/1/6 621/1/6 625/1/6
f 625/3/6 616/3/6 626/3/6
f 614/1/6 620/1/6 627/1/6
f 620/1/6 625/1/6 627/1/6
f 627/1/6 625/1/6 628/1/6
f 623/3/6 624/3/6 629/3/6
f 624/3/6 619/3/6 630/3/6
f 629/3/6 624/3/6 630/3/6
f 619/3/6 613/3/6 630/3/6
f 614/1/6 627/1/6 631/1/6
f 608/1/6 614/1/6 631/1/6
f 631/1/6 627/1/6 632/1/6
f 630/3/6 613/3/6 633/3/6
f 613/3/6 607/3/6 634/3/6
f 633/3/6 613/3/6 634/3/6
f 607/3/6 601/3/6 634/3/6
f 596/1/6 602/1/6 635/1/6
f 602/1/6 608/1/6 635/1/6
f 608/1/6 631/1/6 635/1/6
f 635/1/6 631/1/6 636/1/6
f 634/3/6 601/3/6 637/3/6
f 591/3/6 588/3/6 638/3/6
f 637/3/6 601/3/6 638/3/6
f 601/3/6 595/3/6 638/3/6
f 595/3/6 591/3/6 638/3/6
f 588/1/6 592/1/6 638/1/6
f 592/1/6 596/1/6 638/1/6
f 596/1/6 635/1/6 638/1/6
f 638/1/6 635/1/6 639/1/6
