# MagicaVoxel @ ephtracy

# material
mtllib House_Bed.mtl
usemtl palette

# normals
vn -1 0 0
vn 1 0 0
vn 0 0 1
vn 0 0 -1
vn 0 -1 0
vn 0 1 0

# texcoords
vt 0.279297 0.5
vt 0.396484 0.5
vt 0.419922 0.5
vt 0.958984 0.5

# verts
v -8 6 14.5
v -8 6 -8.5
v -8 11 14.5
v -8 11 -8.5
v -7 0 14.5
v -7 0 12.5
v -7 0 -13.5
v -7 0 -15.5
v -7 4 -15.5
v -7 4 -16.5
v -7 5 12.5
v -7 5 -13.5
v -7 6 14.5
v -7 6 -8.5
v -7 6 -15.5
v -7 10 -8.5
v -7 10 -15.5
v -7 13 -15.5
v -7 13 -16.5
v -5 11 -10.5
v -5 11 -13.5
v -5 12 -10.5
v -5 12 -13.5
v -4 10 -10.5
v -4 10 -13.5
v -4 11 -9.5
v -4 11 -10.5
v -4 11 -13.5
v -4 11 -14.5
v -4 12 -9.5
v -4 12 -10.5
v -4 12 -13.5
v -4 12 -14.5
v -4 13 -10.5
v -4 13 -13.5
v 5 0 14.5
v 5 0 12.5
v 5 0 -13.5
v 5 0 -15.5
v 5 4 -14.5
v 5 4 -15.5
v 5 5 14.5
v 5 5 13.5
v 5 6 13.5
v 5 6 12.5
v 5 6 -13.5
v 5 6 -14.5
v 6 5 12.5
v 6 5 9.5
v 6 5 7.5
v 6 5 3.5
v 6 5 1.5
v 6 5 -2.5
v 6 5 -4.5
v 6 5 -8.5
v 6 5 -10.5
v 6 5 -13.5
v 6 6 12.5
v 6 6 9.5
v 6 6 7.5
v 6 6 3.5
v 6 6 1.5
v 6 6 -2.5
v 6 6 -4.5
v 6 6 -8.5
v 6 6 -10.5
v 6 6 -13.5
v -6 5 12.5
v -6 5 9.5
v -6 5 7.5
v -6 5 3.5
v -6 5 1.5
v -6 5 -2.5
v -6 5 -4.5
v -6 5 -8.5
v -6 5 -10.5
v -6 5 -13.5
v -6 6 12.5
v -6 6 9.5
v -6 6 7.5
v -6 6 3.5
v -6 6 1.5
v -6 6 -2.5
v -6 6 -4.5
v -6 6 -8.5
v -6 6 -10.5
v -6 6 -13.5
v -5 0 14.5
v -5 0 12.5
v -5 0 -13.5
v -5 0 -15.5
v -5 4 -14.5
v -5 4 -15.5
v -5 5 14.5
v -5 5 13.5
v -5 6 13.5
v -5 6 12.5
v -5 6 -13.5
v -5 6 -14.5
v 4 10 -10.5
v 4 10 -13.5
v 4 11 -9.5
v 4 11 -10.5
v 4 11 -13.5
v 4 11 -14.5
v 4 12 -9.5
v 4 12 -10.5
v 4 12 -13.5
v 4 12 -14.5
v 4 13 -10.5
v 4 13 -13.5
v 5 11 -10.5
v 5 11 -13.5
v 5 12 -10.5
v 5 12 -13.5
v 7 0 14.5
v 7 0 12.5
v 7 0 -13.5
v 7 0 -15.5
v 7 4 -15.5
v 7 4 -16.5
v 7 5 12.5
v 7 5 -13.5
v 7 6 14.5
v 7 6 -8.5
v 7 6 -15.5
v 7 10 -8.5
v 7 10 -15.5
v 7 13 -15.5
v 7 13 -16.5
v 8 6 14.5
v 8 6 -8.5
v 8 11 14.5
v 8 11 -8.5
v -8 6 14.5
v -8 11 14.5
v -7 0 14.5
v -7 6 14.5
v -5 0 14.5
v -5 5 14.5
v 5 0 14.5
v 5 5 14.5
v 7 0 14.5
v 7 6 14.5
v 8 6 14.5
v 8 11 14.5
v -6 5 9.5
v -6 6 9.5
v 6 5 9.5
v 6 6 9.5
v -6 5 3.5
v -6 6 3.5
v 6 5 3.5
v 6 6 3.5
v -6 5 -2.5
v -6 6 -2.5
v 6 5 -2.5
v 6 6 -2.5
v -6 5 -8.5
v -6 6 -8.5
v 6 5 -8.5
v 6 6 -8.5
v -4 11 -9.5
v -4 12 -9.5
v 4 11 -9.5
v 4 12 -9.5
v -5 11 -10.5
v -5 12 -10.5
v -4 10 -10.5
v -4 11 -10.5
v -4 12 -10.5
v -4 13 -10.5
v 4 10 -10.5
v 4 11 -10.5
v 4 12 -10.5
v 4 13 -10.5
v 5 11 -10.5
v 5 12 -10.5
v -7 0 -13.5
v -7 5 -13.5
v -6 5 -13.5
v -6 6 -13.5
v -5 0 -13.5
v -5 6 -13.5
v 5 0 -13.5
v 5 6 -13.5
v 6 5 -13.5
v 6 6 -13.5
v 7 0 -13.5
v 7 5 -13.5
v -5 4 -14.5
v -5 6 -14.5
v 5 4 -14.5
v 5 6 -14.5
v -7 10 -15.5
v -7 13 -15.5
v 7 10 -15.5
v 7 13 -15.5
v -5 5 13.5
v -5 6 13.5
v 5 5 13.5
v 5 6 13.5
v -7 0 12.5
v -7 5 12.5
v -6 5 12.5
v -6 6 12.5
v -5 0 12.5
v -5 6 12.5
v 5 0 12.5
v 5 6 12.5
v 6 5 12.5
v 6 6 12.5
v 7 0 12.5
v 7 5 12.5
v -6 5 7.5
v -6 6 7.5
v 6 5 7.5
v 6 6 7.5
v -6 5 1.5
v -6 6 1.5
v 6 5 1.5
v 6 6 1.5
v -6 5 -4.5
v -6 6 -4.5
v 6 5 -4.5
v 6 6 -4.5
v -8 6 -8.5
v -8 11 -8.5
v -7 6 -8.5
v -7 10 -8.5
v 7 6 -8.5
v 7 10 -8.5
v 8 6 -8.5
v 8 11 -8.5
v -6 5 -10.5
v -6 6 -10.5
v 6 5 -10.5
v 6 6 -10.5
v -5 11 -13.5
v -5 12 -13.5
v -4 10 -13.5
v -4 11 -13.5
v -4 12 -13.5
v -4 13 -13.5
v 4 10 -13.5
v 4 11 -13.5
v 4 12 -13.5
v 4 13 -13.5
v 5 11 -13.5
v 5 12 -13.5
v -4 11 -14.5
v -4 12 -14.5
v 4 11 -14.5
v 4 12 -14.5
v -7 0 -15.5
v -7 4 -15.5
v -5 0 -15.5
v -5 4 -15.5
v 5 0 -15.5
v 5 4 -15.5
v 7 0 -15.5
v 7 4 -15.5
v -7 4 -16.5
v -7 13 -16.5
v 7 4 -16.5
v 7 13 -16.5
v -7 0 14.5
v -5 0 14.5
v 5 0 14.5
v 7 0 14.5
v -7 0 12.5
v -5 0 12.5
v 5 0 12.5
v 7 0 12.5
v -7 0 -13.5
v -5 0 -13.5
v 5 0 -13.5
v 7 0 -13.5
v -7 0 -15.5
v -5 0 -15.5
v 5 0 -15.5
v 7 0 -15.5
v -5 4 -14.5
v 5 4 -14.5
v -7 4 -15.5
v -5 4 -15.5
v 5 4 -15.5
v 7 4 -15.5
v -7 4 -16.5
v 7 4 -16.5
v -5 5 14.5
v 5 5 14.5
v -5 5 13.5
v 5 5 13.5
v -7 5 12.5
v -6 5 12.5
v 6 5 12.5
v 7 5 12.5
v -6 5 9.5
v 6 5 9.5
v -6 5 7.5
v 6 5 7.5
v -6 5 3.5
v 6 5 3.5
v -6 5 1.5
v 6 5 1.5
v -6 5 -2.5
v 6 5 -2.5
v -6 5 -4.5
v 6 5 -4.5
v -6 5 -8.5
v 6 5 -8.5
v -6 5 -10.5
v 6 5 -10.5
v -7 5 -13.5
v -6 5 -13.5
v 6 5 -13.5
v 7 5 -13.5
v -8 6 14.5
v -7 6 14.5
v 7 6 14.5
v 8 6 14.5
v -5 6 13.5
v 5 6 13.5
v -6 6 12.5
v -5 6 12.5
v 5 6 12.5
v 6 6 12.5
v -6 6 9.5
v 6 6 9.5
v -6 6 7.5
v 6 6 7.5
v -6 6 3.5
v 6 6 3.5
v -6 6 1.5
v 6 6 1.5
v -6 6 -2.5
v 6 6 -2.5
v -6 6 -4.5
v 6 6 -4.5
v -8 6 -8.5
v -7 6 -8.5
v -6 6 -8.5
v 6 6 -8.5
v 7 6 -8.5
v 8 6 -8.5
v -6 6 -10.5
v 6 6 -10.5
v -6 6 -13.5
v -5 6 -13.5
v 5 6 -13.5
v 6 6 -13.5
v -5 6 -14.5
v 5 6 -14.5
v -4 11 -9.5
v 4 11 -9.5
v -5 11 -10.5
v -4 11 -10.5
v 4 11 -10.5
v 5 11 -10.5
v -5 11 -13.5
v -4 11 -13.5
v 4 11 -13.5
v 5 11 -13.5
v -4 11 -14.5
v 4 11 -14.5
v -7 10 -8.5
v 7 10 -8.5
v -4 10 -10.5
v 4 10 -10.5
v -4 10 -13.5
v 4 10 -13.5
v -7 10 -15.5
v 7 10 -15.5
v -8 11 14.5
v 8 11 14.5
v -8 11 -8.5
v 8 11 -8.5
v -4 12 -9.5
v 4 12 -9.5
v -5 12 -10.5
v -4 12 -10.5
v 4 12 -10.5
v 5 12 -10.5
v -5 12 -13.5
v -4 12 -13.5
v 4 12 -13.5
v 5 12 -13.5
v -4 12 -14.5
v 4 12 -14.5
v -4 13 -10.5
v 4 13 -10.5
v -4 13 -13.5
v 4 13 -13.5
v -7 13 -15.5
v 7 13 -15.5
v -7 13 -16.5
v 7 13 -16.5

# faces
f 3/1/1 2/1/1 1/1/1
f 4/1/1 2/1/1 3/1/1
f 9/2/1 8/2/1 7/2/1
f 11/2/1 6/2/1 5/2/1
f 12/2/1 10/2/1 9/2/1
f 12/2/1 9/2/1 7/2/1
f 13/2/1 11/2/1 5/2/1
f 13/2/1 12/2/1 11/2/1
f 14/2/1 12/2/1 13/2/1
f 15/2/1 10/2/1 12/2/1
f 15/2/1 12/2/1 14/2/1
f 16/3/1 15/3/1 14/3/1
f 17/2/1 10/2/1 15/2/1
f 17/3/1 15/3/1 16/3/1
f 18/2/1 10/2/1 17/2/1
f 19/2/1 10/2/1 18/2/1
f 22/4/1 21/4/1 20/4/1
f 23/4/1 21/4/1 22/4/1
f 27/4/1 25/4/1 24/4/1
f 28/4/1 25/4/1 27/4/1
f 30/4/1 27/4/1 26/4/1
f 31/4/1 27/4/1 30/4/1
f 32/4/1 29/4/1 28/4/1
f 33/4/1 29/4/1 32/4/1
f 34/4/1 32/4/1 31/4/1
f 35/4/1 32/4/1 34/4/1
f 40/2/1 39/2/1 38/2/1
f 41/2/1 39/2/1 40/2/1
f 42/2/1 37/2/1 36/2/1
f 43/2/1 37/2/1 42/2/1
f 44/2/1 37/2/1 43/2/1
f 45/2/1 37/2/1 44/2/1
f 46/2/1 40/2/1 38/2/1
f 47/2/1 40/2/1 46/2/1
f 58/2/1 49/2/1 48/2/1
f 59/2/1 49/2/1 58/2/1
f 60/2/1 51/2/1 50/2/1
f 61/2/1 51/2/1 60/2/1
f 62/2/1 53/2/1 52/2/1
f 63/2/1 53/2/1 62/2/1
f 64/2/1 55/2/1 54/2/1
f 65/2/1 55/2/1 64/2/1
f 66/2/1 57/2/1 56/2/1
f 67/2/1 57/2/1 66/2/1
f 68/2/2 69/2/2 78/2/2
f 78/2/2 69/2/2 79/2/2
f 70/2/2 71/2/2 80/2/2
f 80/2/2 71/2/2 81/2/2
f 72/2/2 73/2/2 82/2/2
f 82/2/2 73/2/2 83/2/2
f 74/2/2 75/2/2 84/2/2
f 84/2/2 75/2/2 85/2/2
f 76/2/2 77/2/2 86/2/2
f 86/2/2 77/2/2 87/2/2
f 90/2/2 91/2/2 92/2/2
f 92/2/2 91/2/2 93/2/2
f 88/2/2 89/2/2 94/2/2
f 94/2/2 89/2/2 95/2/2
f 95/2/2 89/2/2 96/2/2
f 96/2/2 89/2/2 97/2/2
f 90/2/2 92/2/2 98/2/2
f 98/2/2 92/2/2 99/2/2
f 100/4/2 101/4/2 103/4/2
f 103/4/2 101/4/2 104/4/2
f 102/4/2 103/4/2 106/4/2
f 106/4/2 103/4/2 107/4/2
f 104/4/2 105/4/2 108/4/2
f 108/4/2 105/4/2 109/4/2
f 107/4/2 108/4/2 110/4/2
f 110/4/2 108/4/2 111/4/2
f 112/4/2 113/4/2 114/4/2
f 114/4/2 113/4/2 115/4/2
f 118/2/2 119/2/2 120/2/2
f 116/2/2 117/2/2 122/2/2
f 120/2/2 121/2/2 123/2/2
f 118/2/2 120/2/2 123/2/2
f 116/2/2 122/2/2 124/2/2
f 122/2/2 123/2/2 124/2/2
f 124/2/2 123/2/2 125/2/2
f 123/2/2 121/2/2 126/2/2
f 125/2/2 123/2/2 126/2/2
f 125/3/2 126/3/2 127/3/2
f 126/2/2 121/2/2 128/2/2
f 127/3/2 126/3/2 128/3/2
f 128/2/2 121/2/2 129/2/2
f 129/2/2 121/2/2 130/2/2
f 131/1/2 132/1/2 133/1/2
f 133/1/2 132/1/2 134/1/2
f 138/1/3 136/1/3 135/1/3
f 139/2/3 138/2/3 137/2/3
f 140/2/3 138/2/3 139/2/3
f 142/2/3 138/2/3 140/2/3
f 143/2/3 142/2/3 141/2/3
f 144/1/3 136/1/3 138/1/3
f 144/2/3 142/2/3 143/2/3
f 144/2/3 138/2/3 142/2/3
f 145/1/3 136/1/3 144/1/3
f 146/1/3 136/1/3 145/1/3
f 149/2/3 148/2/3 147/2/3
f 150/2/3 148/2/3 149/2/3
f 153/2/3 152/2/3 151/2/3
f 154/2/3 152/2/3 153/2/3
f 157/2/3 156/2/3 155/2/3
f 158/2/3 156/2/3 157/2/3
f 161/2/3 160/2/3 159/2/3
f 162/2/3 160/2/3 161/2/3
f 165/4/3 164/4/3 163/4/3
f 166/4/3 164/4/3 165/4/3
f 170/4/3 168/4/3 167/4/3
f 171/4/3 168/4/3 170/4/3
f 173/4/3 170/4/3 169/4/3
f 174/4/3 170/4/3 173/4/3
f 175/4/3 172/4/3 171/4/3
f 176/4/3 172/4/3 175/4/3
f 177/4/3 175/4/3 174/4/3
f 178/4/3 175/4/3 177/4/3
f 181/2/3 180/2/3 179/2/3
f 183/2/3 181/2/3 179/2/3
f 183/2/3 182/2/3 181/2/3
f 184/2/3 182/2/3 183/2/3
f 187/2/3 186/2/3 185/2/3
f 188/2/3 186/2/3 187/2/3
f 189/2/3 187/2/3 185/2/3
f 190/2/3 187/2/3 189/2/3
f 193/2/3 192/2/3 191/2/3
f 194/2/3 192/2/3 193/2/3
f 197/2/3 196/2/3 195/2/3
f 198/2/3 196/2/3 197/2/3
f 199/2/4 200/2/4 201/2/4
f 201/2/4 200/2/4 202/2/4
f 203/2/4 204/2/4 205/2/4
f 203/2/4 205/2/4 207/2/4
f 205/2/4 206/2/4 207/2/4
f 207/2/4 206/2/4 208/2/4
f 209/2/4 210/2/4 211/2/4
f 211/2/4 210/2/4 212/2/4
f 209/2/4 211/2/4 213/2/4
f 213/2/4 211/2/4 214/2/4
f 215/2/4 216/2/4 217/2/4
f 217/2/4 216/2/4 218/2/4
f 219/2/4 220/2/4 221/2/4
f 221/2/4 220/2/4 222/2/4
f 223/2/4 224/2/4 225/2/4
f 225/2/4 224/2/4 226/2/4
f 227/1/4 228/1/4 229/1/4
f 229/1/4 228/1/4 230/1/4
f 230/1/4 228/1/4 232/1/4
f 231/1/4 232/1/4 233/1/4
f 232/1/4 228/1/4 234/1/4
f 233/1/4 232/1/4 234/1/4
f 235/2/4 236/2/4 237/2/4
f 237/2/4 236/2/4 238/2/4
f 239/4/4 240/4/4 242/4/4
f 242/4/4 240/4/4 243/4/4
f 241/4/4 242/4/4 245/4/4
f 245/4/4 242/4/4 246/4/4
f 243/4/4 244/4/4 247/4/4
f 247/4/4 244/4/4 248/4/4
f 246/4/4 247/4/4 249/4/4
f 249/4/4 247/4/4 250/4/4
f 251/4/4 252/4/4 253/4/4
f 253/4/4 252/4/4 254/4/4
f 255/2/4 256/2/4 257/2/4
f 257/2/4 256/2/4 258/2/4
f 259/2/4 260/2/4 261/2/4
f 261/2/4 260/2/4 262/2/4
f 263/2/4 264/2/4 265/2/4
f 265/2/4 264/2/4 266/2/4
f 271/2/5 268/2/5 267/2/5
f 272/2/5 268/2/5 271/2/5
f 273/2/5 270/2/5 269/2/5
f 274/2/5 270/2/5 273/2/5
f 279/2/5 276/2/5 275/2/5
f 280/2/5 276/2/5 279/2/5
f 281/2/5 278/2/5 277/2/5
f 282/2/5 278/2/5 281/2/5
f 286/2/5 284/2/5 283/2/5
f 287/2/5 284/2/5 286/2/5
f 289/2/5 286/2/5 285/2/5
f 289/2/5 288/2/5 287/2/5
f 289/2/5 287/2/5 286/2/5
f 290/2/5 288/2/5 289/2/5
f 293/2/5 292/2/5 291/2/5
f 294/2/5 292/2/5 293/2/5
f 299/2/5 296/2/5 295/2/5
f 300/2/5 298/2/5 297/2/5
f 301/2/5 299/2/5 295/2/5
f 301/2/5 300/2/5 299/2/5
f 302/2/5 298/2/5 300/2/5
f 302/2/5 300/2/5 301/2/5
f 303/2/5 301/2/5 295/2/5
f 304/2/5 298/2/5 302/2/5
f 305/2/5 303/2/5 295/2/5
f 305/2/5 304/2/5 303/2/5
f 306/2/5 298/2/5 304/2/5
f 306/2/5 304/2/5 305/2/5
f 307/2/5 305/2/5 295/2/5
f 308/2/5 298/2/5 306/2/5
f 309/2/5 307/2/5 295/2/5
f 309/2/5 308/2/5 307/2/5
f 310/2/5 298/2/5 308/2/5
f 310/2/5 308/2/5 309/2/5
f 311/2/5 309/2/5 295/2/5
f 312/2/5 298/2/5 310/2/5
f 313/2/5 311/2/5 295/2/5
f 313/2/5 312/2/5 311/2/5
f 314/2/5 298/2/5 312/2/5
f 314/2/5 312/2/5 313/2/5
f 315/2/5 313/2/5 295/2/5
f 316/2/5 313/2/5 315/2/5
f 317/2/5 298/2/5 314/2/5
f 318/2/5 298/2/5 317/2/5
f 326/3/5 324/3/5 323/3/5
f 327/3/5 324/3/5 326/3/5
f 329/3/5 326/3/5 325/3/5
f 329/3/5 328/3/5 327/3/5
f 329/3/5 327/3/5 326/3/5
f 330/3/5 328/3/5 329/3/5
f 333/3/5 332/3/5 331/3/5
f 334/3/5 332/3/5 333/3/5
f 337/3/5 336/3/5 335/3/5
f 338/3/5 336/3/5 337/3/5
f 341/1/5 320/1/5 319/1/5
f 342/1/5 320/1/5 341/1/5
f 343/3/5 340/3/5 339/3/5
f 344/3/5 340/3/5 343/3/5
f 345/1/5 322/1/5 321/1/5
f 346/1/5 322/1/5 345/1/5
f 349/3/5 348/3/5 347/3/5
f 350/3/5 348/3/5 349/3/5
f 351/3/5 348/3/5 350/3/5
f 352/3/5 348/3/5 351/3/5
f 353/3/5 351/3/5 350/3/5
f 354/3/5 351/3/5 353/3/5
f 358/4/5 356/4/5 355/4/5
f 359/4/5 356/4/5 358/4/5
f 361/4/5 358/4/5 357/4/5
f 362/4/5 358/4/5 361/4/5
f 363/4/5 360/4/5 359/4/5
f 364/4/5 360/4/5 363/4/5
f 365/4/5 363/4/5 362/4/5
f 366/4/5 363/4/5 365/4/5
f 367/3/6 368/3/6 369/3/6
f 369/3/6 368/3/6 370/3/6
f 367/3/6 369/3/6 371/3/6
f 370/3/6 368/3/6 372/3/6
f 367/3/6 371/3/6 373/3/6
f 371/3/6 372/3/6 373/3/6
f 372/3/6 368/3/6 374/3/6
f 373/3/6 372/3/6 374/3/6
f 375/1/6 376/1/6 377/1/6
f 377/1/6 376/1/6 378/1/6
f 379/4/6 380/4/6 382/4/6
f 382/4/6 380/4/6 383/4/6
f 381/4/6 382/4/6 385/4/6
f 385/4/6 382/4/6 386/4/6
f 383/4/6 384/4/6 387/4/6
f 387/4/6 384/4/6 388/4/6
f 386/4/6 387/4/6 389/4/6
f 389/4/6 387/4/6 390/4/6
f 391/4/6 392/4/6 393/4/6
f 393/4/6 392/4/6 394/4/6
f 395/2/6 396/2/6 397/2/6
f 397/2/6 396/2/6 398/2/6
