# MagicaVoxel @ ephtracy

# material
mtllib lit_remix.mtl
usemtl palette

# normals
vn -1 0 0
vn 1 0 0
vn 0 0 1
vn 0 0 -1
vn 0 -1 0
vn 0 1 0

# texcoords
vt 0.0605469 0.5
vt 0.310547 0.5
vt 0.435547 0.5
vt 0.958984 0.5

# verts
v -8 6 14.5
v -8 6 -8.5
v -8 10 14.5
v -8 10 -8.5
v -7 0 14.5
v -7 0 12.5
v -7 0 -13.5
v -7 0 -15.5
v -7 4 -15.5
v -7 4 -16.5
v -7 5 12.5
v -7 5 -13.5
v -7 6 14.5
v -7 6 -8.5
v -7 6 -15.5
v -7 9 -8.5
v -7 9 -15.5
v -7 12 -15.5
v -7 12 -16.5
v -5 10 -10.5
v -5 10 -13.5
v -5 11 -10.5
v -5 11 -13.5
v -4 9 -10.5
v -4 9 -13.5
v -4 10 -9.5
v -4 10 -10.5
v -4 10 -13.5
v -4 10 -14.5
v -4 11 -9.5
v -4 11 -10.5
v -4 11 -13.5
v -4 11 -14.5
v -4 12 -10.5
v -4 12 -13.5
v 5 0 14.5
v 5 0 12.5
v 5 0 -13.5
v 5 0 -15.5
v 5 4 -14.5
v 5 4 -15.5
v 5 5 14.5
v 5 5 13.5
v 5 6 13.5
v 5 6 12.5
v 5 6 -13.5
v 5 6 -14.5
v 6 5 12.5
v 6 5 -13.5
v 6 6 12.5
v 6 6 -13.5
v -6 5 12.5
v -6 5 -13.5
v -6 6 12.5
v -6 6 -13.5
v -5 0 14.5
v -5 0 12.5
v -5 0 -13.5
v -5 0 -15.5
v -5 4 -14.5
v -5 4 -15.5
v -5 5 14.5
v -5 5 13.5
v -5 6 13.5
v -5 6 12.5
v -5 6 -13.5
v -5 6 -14.5
v 4 9 -10.5
v 4 9 -13.5
v 4 10 -9.5
v 4 10 -10.5
v 4 10 -13.5
v 4 10 -14.5
v 4 11 -9.5
v 4 11 -10.5
v 4 11 -13.5
v 4 11 -14.5
v 4 12 -10.5
v 4 12 -13.5
v 5 10 -10.5
v 5 10 -13.5
v 5 11 -10.5
v 5 11 -13.5
v 7 0 14.5
v 7 0 12.5
v 7 0 -13.5
v 7 0 -15.5
v 7 4 -15.5
v 7 4 -16.5
v 7 5 12.5
v 7 5 -13.5
v 7 6 14.5
v 7 6 -8.5
v 7 6 -15.5
v 7 9 -8.5
v 7 9 -15.5
v 7 12 -15.5
v 7 12 -16.5
v 8 6 14.5
v 8 6 -8.5
v 8 10 14.5
v 8 10 -8.5
v -8 6 14.5
v -8 10 14.5
v -7 0 14.5
v -7 6 14.5
v -5 0 14.5
v -5 5 14.5
v 5 0 14.5
v 5 5 14.5
v 7 0 14.5
v 7 6 14.5
v 8 6 14.5
v 8 10 14.5
v -4 10 -9.5
v -4 11 -9.5
v 4 10 -9.5
v 4 11 -9.5
v -5 10 -10.5
v -5 11 -10.5
v -4 9 -10.5
v -4 10 -10.5
v -4 11 -10.5
v -4 12 -10.5
v 4 9 -10.5
v 4 10 -10.5
v 4 11 -10.5
v 4 12 -10.5
v 5 10 -10.5
v 5 11 -10.5
v -7 0 -13.5
v -7 5 -13.5
v -6 5 -13.5
v -6 6 -13.5
v -5 0 -13.5
v -5 6 -13.5
v 5 0 -13.5
v 5 6 -13.5
v 6 5 -13.5
v 6 6 -13.5
v 7 0 -13.5
v 7 5 -13.5
v -5 4 -14.5
v -5 6 -14.5
v 5 4 -14.5
v 5 6 -14.5
v -7 9 -15.5
v -7 12 -15.5
v 7 9 -15.5
v 7 12 -15.5
v -5 5 13.5
v -5 6 13.5
v 5 5 13.5
v 5 6 13.5
v -7 0 12.5
v -7 5 12.5
v -6 5 12.5
v -6 6 12.5
v -5 0 12.5
v -5 6 12.5
v 5 0 12.5
v 5 6 12.5
v 6 5 12.5
v 6 6 12.5
v 7 0 12.5
v 7 5 12.5
v -8 6 -8.5
v -8 10 -8.5
v -7 6 -8.5
v -7 9 -8.5
v 7 6 -8.5
v 7 9 -8.5
v 8 6 -8.5
v 8 10 -8.5
v -5 10 -13.5
v -5 11 -13.5
v -4 9 -13.5
v -4 10 -13.5
v -4 11 -13.5
v -4 12 -13.5
v 4 9 -13.5
v 4 10 -13.5
v 4 11 -13.5
v 4 12 -13.5
v 5 10 -13.5
v 5 11 -13.5
v -4 10 -14.5
v -4 11 -14.5
v 4 10 -14.5
v 4 11 -14.5
v -7 0 -15.5
v -7 4 -15.5
v -5 0 -15.5
v -5 4 -15.5
v 5 0 -15.5
v 5 4 -15.5
v 7 0 -15.5
v 7 4 -15.5
v -7 4 -16.5
v -7 12 -16.5
v 7 4 -16.5
v 7 12 -16.5
v -7 0 14.5
v -5 0 14.5
v 5 0 14.5
v 7 0 14.5
v -7 0 12.5
v -5 0 12.5
v 5 0 12.5
v 7 0 12.5
v -7 0 -13.5
v -5 0 -13.5
v 5 0 -13.5
v 7 0 -13.5
v -7 0 -15.5
v -5 0 -15.5
v 5 0 -15.5
v 7 0 -15.5
v -5 4 -14.5
v 5 4 -14.5
v -7 4 -15.5
v -5 4 -15.5
v 5 4 -15.5
v 7 4 -15.5
v -7 4 -16.5
v 7 4 -16.5
v -5 5 14.5
v 5 5 14.5
v -5 5 13.5
v 5 5 13.5
v -7 5 12.5
v -6 5 12.5
v 6 5 12.5
v 7 5 12.5
v -7 5 -13.5
v -6 5 -13.5
v 6 5 -13.5
v 7 5 -13.5
v -8 6 14.5
v -7 6 14.5
v 7 6 14.5
v 8 6 14.5
v -5 6 13.5
v 5 6 13.5
v -6 6 12.5
v -5 6 12.5
v 5 6 12.5
v 6 6 12.5
v -8 6 -8.5
v -7 6 -8.5
v 7 6 -8.5
v 8 6 -8.5
v -6 6 -13.5
v -5 6 -13.5
v 5 6 -13.5
v 6 6 -13.5
v -5 6 -14.5
v 5 6 -14.5
v -4 10 -9.5
v 4 10 -9.5
v -5 10 -10.5
v -4 10 -10.5
v 4 10 -10.5
v 5 10 -10.5
v -5 10 -13.5
v -4 10 -13.5
v 4 10 -13.5
v 5 10 -13.5
v -4 10 -14.5
v 4 10 -14.5
v -7 9 -8.5
v 7 9 -8.5
v -4 9 -10.5
v 4 9 -10.5
v -4 9 -13.5
v 4 9 -13.5
v -7 9 -15.5
v 7 9 -15.5
v -8 10 14.5
v 8 10 14.5
v -8 10 -8.5
v 8 10 -8.5
v -4 11 -9.5
v 4 11 -9.5
v -5 11 -10.5
v -4 11 -10.5
v 4 11 -10.5
v 5 11 -10.5
v -5 11 -13.5
v -4 11 -13.5
v 4 11 -13.5
v 5 11 -13.5
v -4 11 -14.5
v 4 11 -14.5
v -4 12 -10.5
v 4 12 -10.5
v -4 12 -13.5
v 4 12 -13.5
v -7 12 -15.5
v 7 12 -15.5
v -7 12 -16.5
v 7 12 -16.5

# faces
f 3/1/1 2/1/1 1/1/1
f 4/1/1 2/1/1 3/1/1
f 9/2/1 8/2/1 7/2/1
f 11/2/1 6/2/1 5/2/1
f 12/2/1 10/2/1 9/2/1
f 12/2/1 9/2/1 7/2/1
f 13/2/1 11/2/1 5/2/1
f 13/2/1 12/2/1 11/2/1
f 14/2/1 12/2/1 13/2/1
f 15/2/1 10/2/1 12/2/1
f 15/2/1 12/2/1 14/2/1
f 16/3/1 15/3/1 14/3/1
f 17/2/1 10/2/1 15/2/1
f 17/3/1 15/3/1 16/3/1
f 18/2/1 10/2/1 17/2/1
f 19/2/1 10/2/1 18/2/1
f 22/4/1 21/4/1 20/4/1
f 23/4/1 21/4/1 22/4/1
f 27/4/1 25/4/1 24/4/1
f 28/4/1 25/4/1 27/4/1
f 30/4/1 27/4/1 26/4/1
f 31/4/1 27/4/1 30/4/1
f 32/4/1 29/4/1 28/4/1
f 33/4/1 29/4/1 32/4/1
f 34/4/1 32/4/1 31/4/1
f 35/4/1 32/4/1 34/4/1
f 40/2/1 39/2/1 38/2/1
f 41/2/1 39/2/1 40/2/1
f 42/2/1 37/2/1 36/2/1
f 43/2/1 37/2/1 42/2/1
f 44/2/1 37/2/1 43/2/1
f 45/2/1 37/2/1 44/2/1
f 46/2/1 40/2/1 38/2/1
f 47/2/1 40/2/1 46/2/1
f 50/2/1 49/2/1 48/2/1
f 51/2/1 49/2/1 50/2/1
f 52/2/2 53/2/2 54/2/2
f 54/2/2 53/2/2 55/2/2
f 58/2/2 59/2/2 60/2/2
f 60/2/2 59/2/2 61/2/2
f 56/2/2 57/2/2 62/2/2
f 62/2/2 57/2/2 63/2/2
f 63/2/2 57/2/2 64/2/2
f 64/2/2 57/2/2 65/2/2
f 58/2/2 60/2/2 66/2/2
f 66/2/2 60/2/2 67/2/2
f 68/4/2 69/4/2 71/4/2
f 71/4/2 69/4/2 72/4/2
f 70/4/2 71/4/2 74/4/2
f 74/4/2 71/4/2 75/4/2
f 72/4/2 73/4/2 76/4/2
f 76/4/2 73/4/2 77/4/2
f 75/4/2 76/4/2 78/4/2
f 78/4/2 76/4/2 79/4/2
f 80/4/2 81/4/2 82/4/2
f 82/4/2 81/4/2 83/4/2
f 86/2/2 87/2/2 88/2/2
f 84/2/2 85/2/2 90/2/2
f 88/2/2 89/2/2 91/2/2
f 86/2/2 88/2/2 91/2/2
f 84/2/2 90/2/2 92/2/2
f 90/2/2 91/2/2 92/2/2
f 92/2/2 91/2/2 93/2/2
f 91/2/2 89/2/2 94/2/2
f 93/2/2 91/2/2 94/2/2
f 93/3/2 94/3/2 95/3/2
f 94/2/2 89/2/2 96/2/2
f 95/3/2 94/3/2 96/3/2
f 96/2/2 89/2/2 97/2/2
f 97/2/2 89/2/2 98/2/2
f 99/1/2 100/1/2 101/1/2
f 101/1/2 100/1/2 102/1/2
f 106/1/3 104/1/3 103/1/3
f 107/2/3 106/2/3 105/2/3
f 108/2/3 106/2/3 107/2/3
f 110/2/3 106/2/3 108/2/3
f 111/2/3 110/2/3 109/2/3
f 112/1/3 104/1/3 106/1/3
f 112/2/3 110/2/3 111/2/3
f 112/2/3 106/2/3 110/2/3
f 113/1/3 104/1/3 112/1/3
f 114/1/3 104/1/3 113/1/3
f 117/4/3 116/4/3 115/4/3
f 118/4/3 116/4/3 117/4/3
f 122/4/3 120/4/3 119/4/3
f 123/4/3 120/4/3 122/4/3
f 125/4/3 122/4/3 121/4/3
f 126/4/3 122/4/3 125/4/3
f 127/4/3 124/4/3 123/4/3
f 128/4/3 124/4/3 127/4/3
f 129/4/3 127/4/3 126/4/3
f 130/4/3 127/4/3 129/4/3
f 133/2/3 132/2/3 131/2/3
f 135/2/3 133/2/3 131/2/3
f 135/2/3 134/2/3 133/2/3
f 136/2/3 134/2/3 135/2/3
f 139/2/3 138/2/3 137/2/3
f 140/2/3 138/2/3 139/2/3
f 141/2/3 139/2/3 137/2/3
f 142/2/3 139/2/3 141/2/3
f 145/2/3 144/2/3 143/2/3
f 146/2/3 144/2/3 145/2/3
f 149/2/3 148/2/3 147/2/3
f 150/2/3 148/2/3 149/2/3
f 151/2/4 152/2/4 153/2/4
f 153/2/4 152/2/4 154/2/4
f 155/2/4 156/2/4 157/2/4
f 155/2/4 157/2/4 159/2/4
f 157/2/4 158/2/4 159/2/4
f 159/2/4 158/2/4 160/2/4
f 161/2/4 162/2/4 163/2/4
f 163/2/4 162/2/4 164/2/4
f 161/2/4 163/2/4 165/2/4
f 165/2/4 163/2/4 166/2/4
f 167/1/4 168/1/4 169/1/4
f 169/1/4 168/1/4 170/1/4
f 170/1/4 168/1/4 172/1/4
f 171/1/4 172/1/4 173/1/4
f 172/1/4 168/1/4 174/1/4
f 173/1/4 172/1/4 174/1/4
f 175/4/4 176/4/4 178/4/4
f 178/4/4 176/4/4 179/4/4
f 177/4/4 178/4/4 181/4/4
f 181/4/4 178/4/4 182/4/4
f 179/4/4 180/4/4 183/4/4
f 183/4/4 180/4/4 184/4/4
f 182/4/4 183/4/4 185/4/4
f 185/4/4 183/4/4 186/4/4
f 187/4/4 188/4/4 189/4/4
f 189/4/4 188/4/4 190/4/4
f 191/2/4 192/2/4 193/2/4
f 193/2/4 192/2/4 194/2/4
f 195/2/4 196/2/4 197/2/4
f 197/2/4 196/2/4 198/2/4
f 199/2/4 200/2/4 201/2/4
f 201/2/4 200/2/4 202/2/4
f 207/2/5 204/2/5 203/2/5
f 208/2/5 204/2/5 207/2/5
f 209/2/5 206/2/5 205/2/5
f 210/2/5 206/2/5 209/2/5
f 215/2/5 212/2/5 211/2/5
f 216/2/5 212/2/5 215/2/5
f 217/2/5 214/2/5 213/2/5
f 218/2/5 214/2/5 217/2/5
f 222/2/5 220/2/5 219/2/5
f 223/2/5 220/2/5 222/2/5
f 225/2/5 222/2/5 221/2/5
f 225/2/5 224/2/5 223/2/5
f 225/2/5 223/2/5 222/2/5
f 226/2/5 224/2/5 225/2/5
f 229/2/5 228/2/5 227/2/5
f 230/2/5 228/2/5 229/2/5
f 235/2/5 232/2/5 231/2/5
f 236/2/5 232/2/5 235/2/5
f 237/2/5 234/2/5 233/2/5
f 238/2/5 234/2/5 237/2/5
f 246/3/5 244/3/5 243/3/5
f 247/3/5 244/3/5 246/3/5
f 249/1/5 240/1/5 239/1/5
f 250/1/5 240/1/5 249/1/5
f 251/1/5 242/1/5 241/1/5
f 252/1/5 242/1/5 251/1/5
f 253/3/5 248/3/5 247/3/5
f 253/3/5 246/3/5 245/3/5
f 253/3/5 247/3/5 246/3/5
f 254/3/5 248/3/5 253/3/5
f 255/3/5 248/3/5 254/3/5
f 256/3/5 248/3/5 255/3/5
f 257/3/5 255/3/5 254/3/5
f 258/3/5 255/3/5 257/3/5
f 262/4/5 260/4/5 259/4/5
f 263/4/5 260/4/5 262/4/5
f 265/4/5 262/4/5 261/4/5
f 266/4/5 262/4/5 265/4/5
f 267/4/5 264/4/5 263/4/5
f 268/4/5 264/4/5 267/4/5
f 269/4/5 267/4/5 266/4/5
f 270/4/5 267/4/5 269/4/5
f 271/3/6 272/3/6 273/3/6
f 273/3/6 272/3/6 274/3/6
f 271/3/6 273/3/6 275/3/6
f 274/3/6 272/3/6 276/3/6
f 271/3/6 275/3/6 277/3/6
f 275/3/6 276/3/6 277/3/6
f 276/3/6 272/3/6 278/3/6
f 277/3/6 276/3/6 278/3/6
f 279/1/6 280/1/6 281/1/6
f 281/1/6 280/1/6 282/1/6
f 283/4/6 284/4/6 286/4/6
f 286/4/6 284/4/6 287/4/6
f 285/4/6 286/4/6 289/4/6
f 289/4/6 286/4/6 290/4/6
f 287/4/6 288/4/6 291/4/6
f 291/4/6 288/4/6 292/4/6
f 290/4/6 291/4/6 293/4/6
f 293/4/6 291/4/6 294/4/6
f 295/4/6 296/4/6 297/4/6
f 297/4/6 296/4/6 298/4/6
f 299/2/6 300/2/6 301/2/6
f 301/2/6 300/2/6 302/2/6
